<svg width="80" height="80" viewBox="0 0 80 80" fill="none" xmlns="http://www.w3.org/2000/svg">
<path d="M1.15023 28.7559H3.4507V34.5071C3.4507 34.8121 3.57189 35.1047 3.7876 35.3204C4.00331 35.5361 4.29588 35.6573 4.60094 35.6573H32.2066C32.5116 35.6573 32.8042 35.5361 33.0199 35.3204C33.2356 35.1047 33.3568 34.8121 33.3568 34.5071V27.6056C33.3568 27.3006 33.2356 27.008 33.0199 26.7923C32.8042 26.5766 32.5116 26.4554 32.2066 26.4554H29.9061V21.8545H31.0563C31.3614 21.8545 31.654 21.7333 31.8697 21.5176C32.0854 21.3019 32.2066 21.0093 32.2066 20.7042V13.8028C32.2066 13.4978 32.0854 13.2052 31.8697 12.9895C31.654 12.7738 31.3614 12.6526 31.0563 12.6526H29.9061V6.90142C29.9061 6.59636 29.7849 6.3038 29.5692 6.08809C29.3535 5.87238 29.0609 5.75119 28.7559 5.75119H1.15023C0.845173 5.75119 0.552607 5.87238 0.336896 6.08809C0.121185 6.3038 0 6.59636 0 6.90142V13.8028C0 14.1079 0.121185 14.4005 0.336896 14.6162C0.552607 14.8319 0.845173 14.9531 1.15023 14.9531H2.30047V19.554H1.15023C0.845173 19.554 0.552607 19.6752 0.336896 19.8909C0.121185 20.1066 0 20.3992 0 20.7042V27.6056C0 27.9107 0.121185 28.2033 0.336896 28.419C0.552607 28.6347 0.845173 28.7559 1.15023 28.7559ZM31.0563 33.3568H5.75117V28.7559H8.05164V31.0564H10.3521V28.7559H12.6526V31.0564H14.9531V28.7559H17.2535V31.0564H19.554V28.7559H21.8545V31.0564H24.1549V28.7559H26.4554V31.0564H28.7559V28.7559H31.0563V33.3568ZM2.30047 8.05166H4.60094V10.3521H6.90141V8.05166H9.20188V10.3521H11.5023V8.05166H13.8028V10.3521H16.1033V8.05166H18.4038V10.3521H20.7042V8.05166H23.0047V10.3521H25.3052V8.05166H27.6056V12.6526H2.30047V8.05166ZM4.60094 14.9531H6.90141V17.2535H9.20188V14.9531H11.5023V17.2535H13.8028V14.9531H16.1033V17.2535H18.4038V14.9531H20.7042V17.2535H23.0047V14.9531H25.3052V17.2535H27.6056V14.9531H29.9061V19.554H4.60094V14.9531ZM2.30047 21.8545H4.60094V24.1549H6.90141V21.8545H9.20188V24.1549H11.5023V21.8545H13.8028V24.1549H16.1033V21.8545H18.4038V24.1549H20.7042V21.8545H23.0047V24.1549H25.3052V21.8545H27.6056V26.4554H2.30047V21.8545Z" fill="#FF5722"/>
<path d="M51.7606 34.507C55.173 34.507 58.5088 33.4951 61.3461 31.5993C64.1834 29.7035 66.3949 27.0088 67.7007 23.8562C69.0066 20.7035 69.3483 17.2344 68.6826 13.8875C68.0168 10.5407 66.3736 7.4664 63.9607 5.05345C61.5477 2.6405 58.4734 0.99726 55.1266 0.331529C51.7797 -0.334202 48.3106 0.00747571 45.1579 1.31335C42.0053 2.61923 39.3106 4.83066 37.4148 7.66799C35.5189 10.5053 34.507 13.8411 34.507 17.2535C34.5122 21.8279 36.3317 26.2134 39.5662 29.4479C42.8007 32.6824 47.1862 34.5019 51.7606 34.507ZM51.7606 2.30048C54.718 2.30048 57.609 3.17746 60.068 4.82052C62.5271 6.46358 64.4436 8.79893 65.5754 11.5312C66.7071 14.2636 67.0033 17.2701 66.4263 20.1707C65.8493 23.0713 64.4252 25.7357 62.334 27.8269C60.2428 29.9182 57.5784 31.3423 54.6778 31.9193C51.7772 32.4962 48.7706 32.2001 46.0383 31.0683C43.306 29.9366 40.9706 28.02 39.3276 25.561C37.6845 23.102 36.8075 20.211 36.8075 17.2535C36.8121 13.2891 38.389 9.48842 41.1922 6.68517C43.9955 3.88192 47.7962 2.30504 51.7606 2.30048Z" fill="#FF5722"/>
<path d="M51.7606 29.9061C54.263 29.9061 56.7092 29.164 58.7899 27.7737C60.8707 26.3835 62.4924 24.4074 63.45 22.0954C64.4077 19.7835 64.6582 17.2395 64.17 14.7851C63.6818 12.3308 62.4768 10.0763 60.7073 8.30678C58.9378 6.53729 56.6833 5.33225 54.2289 4.84404C51.7746 4.35584 49.2306 4.6064 46.9186 5.56405C44.6067 6.52169 42.6306 8.1434 41.2403 10.2241C39.85 12.3048 39.108 14.7511 39.108 17.2535C39.1119 20.608 40.4462 23.8239 42.8182 26.1959C45.1902 28.5678 48.4061 29.9021 51.7606 29.9061ZM51.7606 6.9014C53.808 6.9014 55.8095 7.50854 57.5119 8.64604C59.2143 9.78355 60.5411 11.4003 61.3247 13.2919C62.1082 15.1835 62.3132 17.265 61.9138 19.2731C61.5143 21.2812 60.5284 23.1258 59.0806 24.5736C57.6328 26.0213 55.7883 27.0073 53.7802 27.4067C51.772 27.8061 49.6906 27.6011 47.799 26.8176C45.9074 26.0341 44.2906 24.7072 43.1531 23.0048C42.0156 21.3024 41.4084 19.301 41.4084 17.2535C41.4115 14.5089 42.5031 11.8776 44.4439 9.93682C46.3846 7.99608 49.0159 6.90444 51.7606 6.9014Z" fill="#FF5722"/>
<path d="M50.6103 25.3052H52.9108V23.0047H55.2113C55.5163 23.0047 55.8089 22.8835 56.0246 22.6678C56.2403 22.4521 56.3615 22.1595 56.3615 21.8545V17.2535C56.3615 16.9485 56.2403 16.6559 56.0246 16.4402C55.8089 16.2245 55.5163 16.1033 55.2113 16.1033H49.4601V13.8028H56.3615V11.5024H52.9108V9.2019H50.6103V11.5024H48.3098C48.0048 11.5024 47.7122 11.6236 47.4965 11.8393C47.2808 12.055 47.1596 12.3475 47.1596 12.6526V17.2535C47.1596 17.5586 47.2808 17.8512 47.4965 18.0669C47.7122 18.2826 48.0048 18.4038 48.3098 18.4038H54.061V20.7043H47.1596V23.0047H50.6103V25.3052Z" fill="#FF5722"/>
<path d="M0 70H69.0141V39.108H0V70ZM2.30047 41.4085H66.7136V67.6996H2.30047V41.4085Z" fill="#FF5722"/>
<path d="M57.5118 44.8591V43.7089H11.5024V44.8591C11.5024 46.0794 11.0176 47.2496 10.1548 48.1125C9.29194 48.9753 8.12167 49.4601 6.90142 49.4601H5.75119V59.6479H6.90142C8.12167 59.6479 9.29194 60.1326 10.1548 60.9954C11.0176 61.8583 11.5024 63.0286 11.5024 64.2488V65.399H57.5118V64.2488C57.5118 63.0286 57.9965 61.8583 58.8593 60.9954C59.7222 60.1326 60.8924 59.6479 62.1127 59.6479H63.2629V49.4601H62.1127C60.8924 49.4601 59.7222 48.9753 58.8593 48.1125C57.9965 47.2496 57.5118 46.0794 57.5118 44.8591ZM33.3568 46.1014V48.3098H31.0564C30.7513 48.3098 30.4587 48.431 30.243 48.6467C30.0273 48.8624 29.9061 49.155 29.9061 49.4601V54.061C29.9061 54.3661 30.0273 54.6586 30.243 54.8743C30.4587 55.0901 30.7513 55.2112 31.0564 55.2112H36.8075V58.4976H29.9061V60.7981H33.3568V63.0065C31.4418 62.7315 29.6902 61.7753 28.4232 60.3133C27.1561 58.8513 26.4587 55.9956 26.4587 54.061C26.4587 52.1264 27.1561 50.2566 28.4232 48.7946C29.6902 47.3326 31.4418 46.3764 33.3568 46.1014ZM35.6573 63.0065V60.7981H37.9578C38.2628 60.7981 38.5554 60.6769 38.7711 60.4612C38.9868 60.2455 39.108 59.9529 39.108 59.6479V54.061C39.108 53.7559 38.9868 53.4634 38.7711 53.2477C38.5554 53.032 38.2628 52.9108 37.9578 52.9108H32.2066V50.6103H39.108V48.3098H35.6573V46.1014C37.5723 46.3764 39.3239 47.3326 40.591 48.7946C41.858 50.2566 42.5555 52.1264 42.5555 54.061C42.5555 55.9956 41.858 58.8513 40.591 60.3133C39.3239 61.7753 37.5723 62.7315 35.6573 63.0065ZM13.7074 63.0986C13.4659 61.6864 12.7923 60.384 11.7792 59.371C10.7662 58.358 9.4638 57.6843 8.05166 57.4429V51.6651C9.4638 51.4236 10.7662 50.75 11.7792 49.7369C12.7923 48.7239 13.4659 47.4215 13.7074 46.0094H28.0151C26.8102 46.9771 25.8378 48.2029 25.1697 49.5964C24.5016 50.9899 24.1547 52.5156 24.1547 54.061C24.1547 55.6064 24.5016 58.118 25.1697 59.5116C25.8378 60.9051 26.8102 62.1309 28.0151 63.0986H13.7074ZM60.9625 57.4429C59.5503 57.6843 58.2479 58.358 57.2349 59.371C56.2219 60.384 55.5482 61.6864 55.3068 63.0986H40.999C42.2039 62.1309 43.1763 60.9051 43.8444 59.5116C44.5126 58.118 44.8594 55.6064 44.8594 54.061C44.8594 52.5156 44.5126 50.9899 43.8444 49.5964C43.1763 48.2029 42.2039 46.9771 40.999 46.0094H55.3068C55.5482 47.4215 56.2219 48.7239 57.2349 49.7369C58.2479 50.75 59.5503 51.4236 60.9625 51.6651V57.4429Z" fill="#FF5722"/>
</svg>
