<svg width="80" height="80" viewBox="0 0 80 80" fill="none" xmlns="http://www.w3.org/2000/svg">
<path d="M19.0453 50.0312L19.0987 50.035H19.1356C19.1432 50.0371 19.1588 50.0419 19.1826 50.0523C19.2372 50.076 19.3114 50.1186 19.3973 50.1849L21.634 52.1411L21.6433 52.1493L21.6528 52.1573C22.2624 52.6729 22.8808 53.1121 23.5373 53.4862L17.2984 66.7943L17.2877 66.8169L17.2779 66.8399C17.2309 66.9495 17.1739 67.0043 17.1289 67.0346C17.0794 67.0679 17.0186 67.0884 16.9512 67.091C16.827 67.096 16.6785 67.0426 16.5722 66.8494L13.4594 61.1923C13.4589 61.1915 13.4585 61.1907 13.458 61.1898C12.7089 59.8197 11.2062 59.1925 9.82116 59.4442L9.82115 59.4442L9.81108 59.4461L3.44553 60.6479C3.2824 60.6764 3.13808 60.6199 3.02715 60.4736C2.91152 60.3212 2.89003 60.143 2.95759 59.9861L9.10049 46.9076C10.9912 48.5517 13.4086 49.6329 16.0728 49.819C16.0732 49.819 16.0736 49.8191 16.0741 49.8191L19.0453 50.0312Z" stroke="#FF5722" stroke-width="3" stroke-miterlimit="10"/>
<path d="M56.028 60.0008L56.0359 60.0175L56.0442 60.0341C56.087 60.1198 56.09 60.1814 56.0841 60.2269C56.0772 60.2796 56.0531 60.3437 56.0022 60.4074C55.8998 60.5353 55.7337 60.6123 55.5333 60.5772L49.1677 59.3753L49.1518 59.3723L49.1359 59.3697C47.6064 59.1149 46.2525 59.8977 45.55 61.0681L45.5355 61.0922L45.5219 61.1169L42.4066 66.7786L42.3999 66.7907L42.3935 66.8029C42.3468 66.8917 42.2437 66.9746 42.0533 66.9672C41.8652 66.9598 41.7456 66.868 41.69 66.7445L41.6853 66.7339L41.6804 66.7235L35.4382 53.4084C36.1196 53.0164 36.7509 52.5656 37.3173 52.0938L37.3173 52.0938L37.3243 52.0879L39.5727 50.1917C39.674 50.1124 39.7643 50.0637 39.992 50.0271L42.9071 49.8189L42.9232 49.8178L42.9392 49.8163C45.5686 49.5718 47.9789 48.5327 49.8753 46.9013L56.028 60.0008Z" stroke="#FF5722" stroke-width="3" stroke-miterlimit="10"/>
<path d="M36.2738 45.0645L36.3006 45.0437L36.3266 45.0217C37.014 44.4377 37.8781 44.0679 38.7518 44.0223L38.7657 44.0216L38.7796 44.0206L41.5074 43.8275C41.5082 43.8274 41.509 43.8274 41.5098 43.8273C45.1084 43.583 47.9893 40.7421 48.2378 37.1487C48.2379 37.1478 48.2379 37.1469 48.238 37.1461L48.4328 34.4426L48.4338 34.4284L48.4346 34.4143C48.4799 33.5609 48.8472 32.7121 49.433 32.0326L51.2493 29.9752L51.2556 29.9681L51.2617 29.9609C53.6248 27.2151 53.6449 23.2128 51.2486 20.5087C51.2481 20.5081 51.2476 20.5076 51.2472 20.5071L49.4329 18.4521C48.8471 17.7725 48.4799 16.9238 48.4346 16.0704L48.4338 16.0563L48.4328 16.0421L48.238 13.3387C48.2379 13.3378 48.2379 13.3369 48.2378 13.3361C47.9893 9.74263 45.1085 6.90185 41.51 6.65741C41.5092 6.65736 41.5083 6.6573 41.5074 6.65724L38.7796 6.46412L38.7657 6.46313L38.7518 6.46241C37.8804 6.41695 37.0185 6.04891 36.3319 5.46756L34.2561 3.66738L34.249 3.66118L34.2418 3.65508C31.4907 1.32945 27.4949 1.30059 24.7754 3.63956L22.7257 5.22671L22.6988 5.24753L22.6728 5.26955C21.9854 5.85353 21.1213 6.22338 20.2476 6.26895L20.2337 6.26968L20.2198 6.27066L17.492 6.46378C17.4911 6.46384 17.4903 6.4639 17.4894 6.46396C13.8909 6.70836 11.0101 9.54913 10.7616 13.1426C10.7616 13.1434 10.7615 13.1443 10.7614 13.1452L10.5666 15.8487L10.5656 15.8628L10.5648 15.877C10.5195 16.7303 10.1523 17.5791 9.56646 18.2587L7.75012 20.316L7.74384 20.3231L7.73766 20.3303C5.37457 23.0762 5.35452 27.0784 7.75087 29.7826C7.75133 29.7831 7.75179 29.7837 7.75225 29.7842L9.56645 31.8391C10.1523 32.5187 10.5195 33.3675 10.5648 34.2208L10.5656 34.235L10.5666 34.2491L10.7614 36.9526C10.7615 36.9535 10.7616 36.9543 10.7616 36.9552C11.0101 40.5487 13.8909 43.3895 17.4895 43.6339C17.4903 43.6339 17.4912 43.634 17.492 43.634L20.2198 43.8271L20.2337 43.8281L20.2476 43.8288C21.119 43.8743 21.9809 44.2423 22.6674 44.8237L24.7433 46.6239L24.7504 46.6301L24.7576 46.6362C27.5087 48.9618 31.5045 48.9907 34.224 46.6517L36.2738 45.0645ZM18.7678 25.1779C18.7678 19.3125 23.5489 14.5547 29.4997 14.5547C35.4505 14.5547 40.2316 19.3125 40.2316 25.1779C40.2316 31.0433 35.4505 35.8011 29.4997 35.8011C23.5541 35.8011 18.7678 30.984 18.7678 25.1779Z" stroke="#FF5722" stroke-width="3" stroke-miterlimit="10"/>
<path d="M27.5433 27.7197L34.053 20.7371C34.487 20.2721 35.1827 20.2721 35.6167 20.7371C36.0507 21.2022 36.0507 21.9503 35.6167 22.4154L28.3286 30.2337C27.8946 30.6988 27.1989 30.6988 26.7649 30.2337L23.3826 26.6009C22.9486 26.1358 22.9486 25.3877 23.3826 24.9227C23.8166 24.4576 24.5123 24.4576 24.9463 24.9227L27.5433 27.7197Z" fill="#FF5722"/>
</svg>
