<svg width="80" height="80" viewBox="0 0 80 80" fill="none" xmlns="http://www.w3.org/2000/svg">
<path d="M72.9115 38.1312C72.069 36.6726 68.7997 34.623 64.4491 34.8116C63.4507 34.8561 62.5067 35.2787 61.8085 35.9936L48.7817 47.763C48.5435 46.8157 47.9825 45.9811 47.1953 45.4027C46.4081 44.8244 45.444 44.5385 44.4688 44.5943H29.3798C26.17 44.5602 22.9815 45.1186 19.9744 46.2415L16.089 47.6498C16.0956 47.252 16.0232 46.8569 15.876 46.4873C15.7287 46.1176 15.5095 45.7809 15.2311 45.4967C14.9528 45.2125 14.6207 44.9863 14.2542 44.8314C13.8878 44.6765 13.4942 44.5959 13.0963 44.5943H3.99264C3.19996 44.5976 2.4407 44.914 1.88018 45.4745C1.31967 46.035 1.00331 46.7943 1 47.587V68.0074C1.00331 68.8 1.31967 69.5593 1.88018 70.1198C2.4407 70.6803 3.19996 70.9967 3.99264 71H13.0963C13.889 70.9967 14.6483 70.6803 15.2088 70.1198C15.7693 69.5593 16.0856 68.8 16.089 68.0074V67.3535L24.0107 70.5599C24.5287 70.7754 25.0842 70.8865 25.6453 70.8868C25.9285 70.8887 26.2111 70.8592 26.4878 70.7988C27.4057 70.6102 47.6375 66.1841 53.8114 61.255C54.0026 61.1214 54.2044 61.0036 54.4149 60.903C55.0195 60.63 55.5467 60.2108 55.949 59.6833C59.7212 54.6536 72.6725 40.2688 72.8486 40.1305L72.9869 39.9545C73.1478 39.6744 73.226 39.3546 73.2127 39.0319C73.1993 38.7093 73.0949 38.397 72.9115 38.1312ZM13.5741 68.0074C13.5741 68.0701 13.5618 68.1322 13.5378 68.1902C13.5137 68.2482 13.4786 68.3009 13.4342 68.3452C13.3898 68.3896 13.3371 68.4248 13.2792 68.4488C13.2212 68.4728 13.1591 68.4852 13.0963 68.4852H3.99264C3.86592 68.4852 3.74438 68.4348 3.65478 68.3452C3.56517 68.2556 3.51483 68.1341 3.51483 68.0074V47.587C3.51483 47.4602 3.56517 47.3387 3.65478 47.2491C3.74438 47.1595 3.86592 47.1091 3.99264 47.1091H13.0963C13.223 47.1091 13.3446 47.1595 13.4342 47.2491C13.5238 47.3387 13.5741 47.4602 13.5741 47.587V68.0074ZM53.9245 58.2121C53.7324 58.4089 53.5011 58.5632 53.2455 58.6648C52.8891 58.8386 52.552 59.0493 52.2396 59.2935C46.5309 63.8453 26.1483 68.2966 25.9974 68.3343C25.6474 68.4083 25.2831 68.3732 24.9537 68.2337L16.1518 64.6626H16.089V50.3156L20.7917 48.6055C23.5184 47.575 26.4149 47.0674 29.3295 47.1091H44.4185C45.2861 47.1091 46.2166 47.675 46.2166 48.2157V49.9761L45.2861 50.8059C45.1434 50.8504 44.9954 50.8757 44.846 50.8814H31.1779C30.8444 50.8814 30.5246 51.0139 30.2888 51.2497C30.053 51.4855 29.9205 51.8053 29.9205 52.1388C29.9205 52.4723 30.053 52.7921 30.2888 53.0279C30.5246 53.2637 30.8444 53.3962 31.1779 53.3962H44.8963C45.5996 53.3872 46.2894 53.2018 46.9023 52.8569C47.5153 52.5119 48.0318 52.0186 48.4045 51.4221L63.5689 37.7917C63.8299 37.5175 64.1845 37.3514 64.5622 37.3265C66.6642 37.1649 68.7528 37.7776 70.4344 39.0491C67.8567 41.8909 57.3698 53.5471 53.9245 58.2121ZM41.2372 28.8264C41.2507 29.3779 41.1344 29.9249 40.8977 30.4233C40.6825 30.8729 40.3688 31.2683 39.9798 31.5801C39.5747 31.894 39.1139 32.1286 38.6218 32.2717C38.2399 32.3784 37.848 32.4458 37.4524 32.4729V33.7303C37.4524 33.897 37.3862 34.0569 37.2683 34.1748C37.1504 34.2927 36.9904 34.359 36.8237 34.359C36.657 34.359 36.497 34.2927 36.3791 34.1748C36.2612 34.0569 36.195 33.897 36.195 33.7303V32.4729H35.8429C35.5373 32.4085 35.2351 32.3288 34.9376 32.234C34.7127 32.1541 34.4941 32.0574 34.2837 31.9447C34.1466 31.8691 34.0198 31.7761 33.9065 31.6681C33.8202 31.5782 33.7632 31.4642 33.743 31.3412C33.719 31.1281 33.719 30.913 33.743 30.6999C33.743 30.5239 33.743 30.3604 33.743 30.2472C33.753 30.1405 33.774 30.0352 33.8059 29.9329C33.8258 29.8711 33.8603 29.815 33.9065 29.7694C33.9602 29.7566 34.0162 29.7566 34.07 29.7694C34.1983 29.7886 34.3196 29.8406 34.422 29.9203C34.5729 30.0209 34.7615 30.1215 35.0005 30.2472C35.2774 30.3763 35.5631 30.4856 35.8555 30.5742C36.2318 30.6802 36.6214 30.731 37.0123 30.7251C37.2723 30.7272 37.531 30.689 37.7793 30.6119C37.9891 30.554 38.1856 30.4558 38.3577 30.3227C38.5125 30.1998 38.6337 30.0398 38.7098 29.8574C38.7985 29.6644 38.8415 29.4536 38.8356 29.2413C38.8442 29.001 38.7686 28.7653 38.6218 28.5749C38.4682 28.3762 38.2809 28.206 38.0685 28.0719C37.8213 27.911 37.5605 27.7722 37.2889 27.657L36.3836 27.2546C36.0714 27.1112 35.769 26.9473 35.4783 26.7642C35.1882 26.585 34.9256 26.3648 34.6987 26.1103C34.4339 25.8232 34.2287 25.4865 34.0949 25.1196C33.9611 24.7527 33.9013 24.3629 33.9191 23.9727C33.9118 23.469 34.0193 22.9702 34.2334 22.5142C34.423 22.1051 34.7075 21.7473 35.0633 21.4705C35.3911 21.1427 35.7798 20.8822 36.2076 20.7035V19.2197C36.2076 19.053 36.2738 18.8931 36.3917 18.7752C36.5096 18.6573 36.6695 18.591 36.8363 18.591C37.003 18.591 37.1629 18.6573 37.2808 18.7752C37.3987 18.8931 37.465 19.053 37.465 19.2197V20.5526H37.7793C38.0529 20.5543 38.326 20.5753 38.5967 20.6155C38.8555 20.6539 39.1116 20.7085 39.3637 20.7789C39.5847 20.843 39.7993 20.9272 40.005 21.0304C40.1344 21.0873 40.2568 21.159 40.3696 21.2442L40.4953 21.3951C40.4986 21.4537 40.4986 21.5125 40.4953 21.5711C40.5037 21.6547 40.5037 21.739 40.4953 21.8226C40.5025 21.9524 40.5025 22.0825 40.4953 22.2124C40.4953 22.3884 40.4953 22.5267 40.4953 22.6525C40.5046 22.7486 40.5046 22.8455 40.4953 22.9417C40.4875 23.0088 40.4563 23.0711 40.4073 23.1177C40.3589 23.1373 40.3048 23.1373 40.2564 23.1177C40.1429 23.1025 40.0348 23.0593 39.9421 22.992C39.7713 22.8939 39.5949 22.8057 39.414 22.7279C39.1815 22.6197 38.9421 22.5273 38.6972 22.4513C38.4018 22.3734 38.0974 22.3354 37.7919 22.3381C37.5624 22.3323 37.3333 22.3619 37.1129 22.4261C36.9386 22.4836 36.7765 22.5731 36.6351 22.6902C36.5118 22.795 36.4166 22.929 36.3585 23.08C36.2951 23.2359 36.261 23.4021 36.2579 23.5704C36.2533 23.8101 36.3285 24.0445 36.4716 24.2368C36.6235 24.4417 36.8162 24.6129 37.0375 24.7398C37.2891 24.9007 37.5541 25.0395 37.8296 25.1547L38.7475 25.5571C39.0584 25.7032 39.3607 25.8669 39.6529 26.0475C39.9507 26.2263 40.2217 26.4464 40.4576 26.7013C40.6922 26.9648 40.8794 27.2668 41.0109 27.5941C41.1735 27.984 41.2507 28.4042 41.2372 28.8264ZM37.0375 40.1431C27.6823 40.1431 22.3257 36.5343 22.3257 30.2472C22.3257 23.9602 26.362 14.4164 31.7438 10.9082C32.024 10.7286 32.3641 10.6675 32.6893 10.7382C33.0146 10.8089 33.2986 11.0057 33.479 11.2855C33.6598 11.5642 33.7229 11.9031 33.6546 12.2283C33.5863 12.5534 33.392 12.8383 33.1143 13.0207C28.5373 15.963 24.8909 24.8404 24.8909 30.2347C24.8909 36.66 32.5233 37.6157 37.0878 37.6157C40.1055 37.6157 50.0391 37.0498 50.0391 30.1466C50.0391 25.0038 46.1034 16.3151 41.2372 13.1338C40.976 12.9457 40.7969 12.6644 40.7368 12.3481C40.6768 12.0318 40.7404 11.7045 40.9145 11.4336C41.0886 11.1628 41.36 10.9691 41.6727 10.8924C41.9854 10.8157 42.3156 10.8619 42.5952 11.0214C48.329 14.6805 52.5539 24.1362 52.5539 30.1466C52.5539 36.396 46.7824 40.1305 37.05 40.1305L37.0375 40.1431ZM43.752 13.159H29.9205C29.587 13.159 29.2672 13.0265 29.0314 12.7907C28.7956 12.5549 28.6631 12.2351 28.6631 11.9016C28.6631 11.5681 28.7956 11.2483 29.0314 11.0125C29.2672 10.7766 29.587 10.6442 29.9205 10.6442H43.752C44.0855 10.6442 44.4054 10.7766 44.6412 11.0125C44.877 11.2483 45.0095 11.5681 45.0095 11.9016C45.0095 12.2351 44.877 12.5549 44.6412 12.7907C44.4054 13.0265 44.0855 13.159 43.752 13.159ZM41.2372 18.1887C40.9037 18.1887 40.5839 18.0562 40.3481 17.8204C40.1123 17.5846 39.9798 17.2647 39.9798 16.9312V11.9016C39.9798 11.5681 40.1123 11.2483 40.3481 11.0125C40.5839 10.7766 40.9037 10.6442 41.2372 10.6442C41.5707 10.6442 41.8905 10.7766 42.1263 11.0125C42.3622 11.2483 42.4946 11.5681 42.4946 11.9016V16.9312C42.4946 17.2647 42.3622 17.5846 42.1263 17.8204C41.8905 18.0562 41.5707 18.1887 41.2372 18.1887ZM42.2431 12.6183C41.977 12.6193 41.7175 12.5358 41.5019 12.3798C41.2862 12.2239 41.1256 12.0036 41.0431 11.7506C40.9607 11.4976 40.9606 11.225 41.0429 10.9719C41.1252 10.7189 41.2857 10.4984 41.5013 10.3424C42.8226 8.88431 43.9433 7.25622 44.8334 5.50135C41.0612 7.0354 40.6337 6.24323 40.2439 5.63967C39.7186 4.79905 39.0303 4.0722 38.2194 3.50207C37.9659 3.82819 37.7308 4.16822 37.5153 4.52057C36.7734 5.68996 36.0064 6.87193 34.7741 6.87193C34.4222 6.86566 34.0791 6.76106 33.7836 6.56996C33.488 6.37886 33.2519 6.10888 33.1018 5.79056C32.7497 5.24987 31.1779 4.73433 29.5181 4.35711L32.7748 10.028C32.858 10.1716 32.9119 10.3301 32.9335 10.4945C32.9551 10.659 32.944 10.8261 32.9007 10.9862C32.8575 11.1463 32.783 11.2963 32.6815 11.4275C32.5801 11.5587 32.4537 11.6685 32.3096 11.7507C32.0209 11.9146 31.679 11.9577 31.3587 11.8706C31.0383 11.7834 30.7654 11.5731 30.5995 11.2855L26.0602 3.4392C25.9499 3.24804 25.8918 3.03121 25.8918 2.81049C25.8918 2.58977 25.9499 2.37293 26.0602 2.18178C26.1826 1.98963 26.3548 1.83431 26.5586 1.73244C26.7623 1.63057 26.9899 1.58595 27.2171 1.60337C28.6254 1.70397 33.064 2.18178 34.8244 4.1182C35.013 3.85414 35.2142 3.52721 35.3651 3.28831C35.9938 2.28238 36.5471 1.41476 37.3895 1.11298C39.2882 0.459126 41.2372 2.81049 42.0168 3.87929C43.7988 3.30465 45.5245 2.56808 47.1722 1.67882C47.4084 1.55738 47.6769 1.51382 47.9393 1.55438C48.2018 1.59494 48.4446 1.71754 48.6331 1.90461C48.8215 2.09168 48.9459 2.33361 48.9885 2.59573C49.031 2.85785 48.9894 3.1267 48.8697 3.36375C48.2159 4.62116 44.846 11.0968 42.9473 12.4548C42.7336 12.5771 42.4888 12.6339 42.2431 12.6183Z" fill="#FF5722" stroke="#FF5722" stroke-width="0.2"/>
</svg>
