<svg width="80" height="80" viewBox="0 0 80 80" fill="none" xmlns="http://www.w3.org/2000/svg">
<path d="M45.1462 9.50056L32.558 30.4484L34.3542 31.5278L46.9425 10.58L45.1462 9.50056Z" fill="#FF5722" stroke="#FF5722" stroke-width="0.3"/>
<path d="M44.9869 30.9794C45.816 30.9794 46.6264 30.7335 47.3158 30.2729C48.0051 29.8123 48.5424 29.1576 48.8597 28.3916C49.177 27.6256 49.26 26.7828 49.0983 25.9696C48.9365 25.1565 48.5373 24.4095 47.951 23.8233C47.3648 23.237 46.6178 22.8378 45.8047 22.676C44.9915 22.5143 44.1487 22.5973 43.3827 22.9146C42.6167 23.2319 41.962 23.7692 41.5014 24.4585C41.0408 25.1479 40.7949 25.9583 40.7949 26.7874C40.7949 27.8992 41.2366 28.9654 42.0227 29.7516C42.8089 30.5377 43.8751 30.9794 44.9869 30.9794ZM44.9869 24.6915C45.4014 24.6915 45.8066 24.8144 46.1513 25.0447C46.496 25.275 46.7647 25.6024 46.9233 25.9853C47.0819 26.3683 47.1234 26.7898 47.0426 27.1963C46.9617 27.6029 46.7621 27.9764 46.4689 28.2695C46.1758 28.5626 45.8023 28.7623 45.3958 28.8431C44.9892 28.924 44.5678 28.8825 44.1848 28.7239C43.8018 28.5652 43.4744 28.2966 43.2441 27.9519C43.0138 27.6072 42.8909 27.202 42.8909 26.7874C42.8909 26.2315 43.1117 25.6984 43.5048 25.3054C43.8979 24.9123 44.431 24.6915 44.9869 24.6915Z" fill="#FF5722" stroke="#FF5722" stroke-width="0.3"/>
<path d="M38.6991 14.2116C38.6991 13.3825 38.4532 12.572 37.9926 11.8827C37.532 11.1933 36.8773 10.656 36.1113 10.3387C35.3453 10.0215 34.5025 9.93846 33.6893 10.1002C32.8762 10.2619 32.1292 10.6612 31.543 11.2474C30.9567 11.8337 30.5575 12.5806 30.3957 13.3938C30.234 14.2069 30.317 15.0498 30.6343 15.8158C30.9516 16.5818 31.4889 17.2365 32.1782 17.6971C32.8676 18.1577 33.678 18.4035 34.5071 18.4035C35.6189 18.4035 36.6851 17.9619 37.4713 17.1758C38.2574 16.3896 38.6991 15.3234 38.6991 14.2116ZM34.5071 16.3076C34.0926 16.3076 33.6874 16.1846 33.3427 15.9543C32.998 15.724 32.7293 15.3967 32.5707 15.0137C32.4121 14.6307 32.3706 14.2093 32.4514 13.8027C32.5323 13.3961 32.7319 13.0226 33.0251 12.7295C33.3182 12.4364 33.6916 12.2368 34.0982 12.1559C34.5048 12.075 34.9262 12.1165 35.3092 12.2752C35.6922 12.4338 36.0196 12.7025 36.2499 13.0471C36.4802 13.3918 36.6031 13.7971 36.6031 14.2116C36.6031 14.7675 36.3823 15.3006 35.9892 15.6937C35.5961 16.0867 35.063 16.3076 34.5071 16.3076Z" fill="#FF5722" stroke="#FF5722" stroke-width="0.3"/>
<path d="M65.1905 42.9594L57.8883 36.0545C57.7884 35.9596 57.6707 35.8853 57.542 35.836C57.4133 35.7867 57.2762 35.7632 57.1384 35.7669L51.1064 35.9359C50.8991 35.9416 50.6981 36.0087 50.5289 36.1286C50.3598 36.2486 50.23 36.416 50.156 36.6098C50.0821 36.8036 50.0673 37.0149 50.1135 37.2171C50.1597 37.4192 50.2649 37.6031 50.4157 37.7455L53.3302 40.4999C35.1679 39.1807 18.0834 31.3828 5.18721 18.5259C4.99067 18.3294 4.72411 18.219 4.44617 18.219C4.16823 18.219 3.90167 18.3294 3.70513 18.5259L0.740979 21.4901C0.544444 21.6866 0.434031 21.9532 0.43403 22.2311C0.43403 22.5091 0.544444 22.7756 0.740979 22.9722C15.0272 37.2194 34.0521 45.7181 54.1965 46.8514L50.7722 50.4714C50.6296 50.6219 50.5349 50.8113 50.5001 51.0156C50.4652 51.22 50.4917 51.4301 50.5763 51.6194C50.6609 51.8086 50.7997 51.9686 50.9751 52.079C51.1506 52.1893 51.3549 52.2452 51.5621 52.2395L57.5941 52.0705C57.872 52.0627 58.1353 51.9449 58.3263 51.743L65.232 44.4415C65.4164 44.2363 65.5149 43.968 65.5072 43.6922C65.4994 43.4164 65.3861 43.1541 65.1905 42.9594ZM54.0335 50.0734L57.2896 46.632C57.4276 46.4852 57.5203 46.3018 57.5567 46.1037C57.5931 45.9055 57.5717 45.7011 57.4949 45.5148C57.4181 45.3286 57.2892 45.1684 57.1238 45.0535C56.9583 44.9386 56.7632 44.8738 56.5619 44.8669C36.4948 44.2881 17.3732 36.2099 2.96928 22.226L4.45135 20.7439C18.3484 34.221 36.7502 42.0648 56.0965 42.7579C56.3097 42.7663 56.5203 42.7094 56.7003 42.5949C56.8803 42.4804 57.021 42.3137 57.1037 42.1171C57.1865 41.9205 57.2072 41.7033 57.1632 41.4946C57.1192 41.2859 57.0126 41.0955 56.8576 40.949L53.6941 37.9604L56.762 37.8744L62.9882 43.7613L57.1006 49.9867L54.0335 50.0734Z" fill="#FF5722" stroke="#FF5722" stroke-width="0.3"/>
<path d="M12.485 46.6991H33.4447C33.7227 46.6991 33.9892 46.8095 34.1858 47.0061C34.3823 47.2026 34.4927 47.4692 34.4927 47.7471V56.8646C35.8982 54.8553 37.9078 53.3465 40.2295 52.5574C42.5512 51.7684 45.064 51.7402 47.4028 52.477C49.7416 53.2138 51.7845 54.6772 53.2347 56.6545C54.6849 58.6318 55.4668 61.02 55.4668 63.4721C55.4668 65.9242 54.6849 68.3125 53.2347 70.2898C51.7845 72.2671 49.7416 73.7305 47.4028 74.4673C45.064 75.2041 42.5512 75.1759 40.2295 74.3869C37.9078 73.5978 35.8982 72.089 34.4927 70.0797V73.9468C34.4927 74.2247 34.3823 74.4913 34.1858 74.6878C33.9892 74.8843 33.7227 74.9947 33.4447 74.9947H12.485C12.2071 74.9947 11.9405 74.8843 11.744 74.6878C11.5474 74.4913 11.437 74.2247 11.437 73.9468V47.7471C11.437 47.4692 11.5474 47.2026 11.744 47.0061C11.9405 46.8095 12.2071 46.6991 12.485 46.6991ZM43.9246 72.8988C45.79 72.8988 47.6136 72.3456 49.1647 71.3092C50.7157 70.2728 51.9246 68.7998 52.6385 67.0763C53.3524 65.3529 53.5392 63.4564 53.1752 61.6268C52.8113 59.7972 51.913 58.1166 50.5939 56.7976C49.2749 55.4785 47.5943 54.5802 45.7647 54.2163C43.935 53.8523 42.0386 54.0391 40.3152 54.753C38.5917 55.4669 37.1187 56.6758 36.0823 58.2268C35.0459 59.7779 34.4927 61.6015 34.4927 63.4669C34.4955 65.9675 35.4901 68.365 37.2583 70.1332C39.0265 71.9014 41.4239 72.896 43.9246 72.8988ZM13.533 72.8988H15.629V70.8028H17.7249V72.8988H19.8209V70.8028H21.9169V72.8988H24.0129V70.8028H26.1088V72.8988H28.2048V70.8028H30.3008V72.8988H32.3967V69.7548H13.533V72.8988ZM13.533 67.6588H15.629V65.5629H17.7249V67.6588H19.8209V65.5629H21.9169V67.6588H24.0129V65.5629H26.1088V67.6588H28.2048V65.5629H30.3008V67.6588H32.3967V64.5149H13.533V67.6588ZM13.533 62.4189H15.629V60.3229H17.7249V62.4189H19.8209V60.3229H21.9169V62.4189H24.0129V60.3229H26.1088V62.4189H28.2048V60.3229H30.3008V62.4189H32.3967V59.275H13.533V62.4189ZM13.533 57.179H15.629V55.083H17.7249V57.179H19.8209V55.083H21.9169V57.179H24.0129V55.083H26.1088V57.179H28.2048V55.083H30.3008V57.179H32.3967V54.035H13.533V57.179ZM13.533 51.9391H15.629V49.8431H17.7249V51.9391H19.8209V49.8431H21.9169V51.9391H24.0129V49.8431H26.1088V51.9391H28.2048V49.8431H30.3008V51.9391H32.3967V48.7951H13.533V51.9391Z" fill="#FF5722" stroke="#FF5722" stroke-width="0.3"/>
<path d="M43.9247 60.323C44.2027 60.323 44.4692 60.4334 44.6658 60.6299C44.8623 60.8265 44.9727 61.093 44.9727 61.371H47.0687C47.066 60.723 46.8632 60.0918 46.488 59.5635C46.1128 59.0352 45.5836 58.6358 44.9727 58.4198V57.179H42.8767V58.4198C42.1781 58.6659 41.589 59.1513 41.214 59.7901C40.8389 60.4289 40.702 61.1798 40.8275 61.9098C40.953 62.6398 41.3329 63.3019 41.8998 63.7787C42.4666 64.2555 43.184 64.5163 43.9247 64.5149C44.132 64.5149 44.3346 64.5764 44.5069 64.6915C44.6793 64.8067 44.8136 64.9704 44.8929 65.1619C44.9723 65.3534 44.993 65.5641 44.9526 65.7674C44.9121 65.9706 44.8123 66.1574 44.6658 66.3039C44.5192 66.4505 44.3325 66.5503 44.1292 66.5908C43.9259 66.6312 43.7152 66.6104 43.5237 66.5311C43.3322 66.4518 43.1685 66.3175 43.0533 66.1451C42.9382 65.9728 42.8767 65.7702 42.8767 65.5629H40.7808C40.7834 66.2108 40.9863 66.8421 41.3614 67.3704C41.7366 67.8986 42.2659 68.2981 42.8767 68.514V69.7548H44.9727V68.514C45.6714 68.2679 46.2604 67.7825 46.6355 67.1438C47.0105 66.505 47.1474 65.7541 47.0219 65.024C46.8964 64.294 46.5166 63.632 45.9497 63.1552C45.3828 62.6783 44.6655 62.4175 43.9247 62.4189C43.6468 62.4189 43.3802 62.3085 43.1837 62.112C42.9871 61.9155 42.8767 61.6489 42.8767 61.371C42.8767 61.093 42.9871 60.8265 43.1837 60.6299C43.3802 60.4334 43.6468 60.323 43.9247 60.323Z" fill="#FF5722" stroke="#FF5722" stroke-width="0.3"/>
</svg>
