<svg width="80" height="80" viewBox="0 0 80 80" fill="none" xmlns="http://www.w3.org/2000/svg">
<path fill-rule="evenodd" clip-rule="evenodd" d="M97.3649 1.01149C97.7447 1.86883 97.3564 2.87105 96.498 3.25002L79.7826 10.6327L88.308 33.2587L89.9495 36.7137L95.7969 34.8979C96.6931 34.6197 97.6448 35.1198 97.9228 36.0149C98.2017 36.9101 97.7013 37.8612 96.8052 38.1394L89.5509 40.3921C88.7436 40.6428 87.8748 40.2623 87.5122 39.4992L85.8405 35.9805L84.5616 36.3776L83.6434 40.5226C84.1034 41.0565 84.5924 41.7492 84.8728 42.6508C85.3017 44.0294 85.1803 45.6275 84.4709 47.6174C83.5702 50.1441 80.9836 50.6441 79.1735 50.6502C78.156 50.6536 77.1077 50.5134 76.1523 50.3123C76.0438 51.2237 75.7906 52.0444 75.3912 52.7697C74.6536 54.1091 73.516 54.9431 72.3018 55.4209C70.6539 56.0693 68.789 56.0985 67.2182 55.8911C66.81 57.3781 66.2151 58.6053 65.426 59.5724C64.3256 60.9211 62.9303 61.6602 61.4255 61.9291C59.2353 62.3205 56.8876 61.7047 54.8181 60.8219C54.418 61.7475 53.9111 62.5139 53.29 63.1126C52.2344 64.1301 50.9772 64.538 49.7417 64.535C48.0535 64.531 46.445 63.7699 45.2258 62.9313C44.3069 63.5913 43.2753 64.1315 42.2615 64.4923C40.895 64.9786 39.1126 65.2952 37.6658 64.5853C35.705 63.623 34.6921 62.3628 34.268 61.1312C34.2628 61.1162 34.2578 61.1014 34.2529 61.0866C33.9775 61.0868 33.6797 61.0786 33.3681 61.0573C32.008 60.9648 29.9611 60.5993 28.5625 59.1435C27.3901 57.9231 26.7118 56.4625 26.328 55.3726C26.2719 55.2135 26.2214 55.0601 26.176 54.9139C25.8452 54.9191 25.4759 54.913 25.0848 54.8863C23.7247 54.7937 21.6778 54.4282 20.2792 52.9725C18.8829 51.5192 18.5997 49.4653 18.5619 48.1046C18.551 47.7118 18.5598 47.3403 18.5787 47.0062C18.4344 46.9548 18.283 46.8981 18.1262 46.8356C17.052 46.408 15.6191 45.6711 14.4467 44.4508C12.9432 42.8858 12.8863 40.7152 13.2341 39.0893C13.4139 38.2483 13.7364 37.3814 14.1739 36.6179L11.2275 34.6396L9.36975 40.0265C9.21557 40.4735 8.88175 40.8361 8.44871 41.0267C8.01565 41.2173 7.52263 41.2188 7.08843 41.0309L1.02367 38.4049C0.162889 38.0322 -0.23253 37.0328 0.140473 36.1727C0.513478 35.3127 1.51366 34.9176 2.37444 35.2902L6.75564 37.1873L15.9656 10.482L0.993287 3.64834C0.139973 3.25886 -0.235789 2.25196 0.153995 1.39934C0.543778 0.546721 1.55151 0.171263 2.40482 0.56073L18.7796 8.03452C19.5752 8.39764 19.9648 9.30504 19.6798 10.1313L19.4258 10.8681L29.2768 12.5513C30.2014 12.7092 30.8229 13.5864 30.6648 14.5103C30.5067 15.4343 29.6289 16.0551 28.7041 15.8972L18.3041 14.1202L12.3728 31.3188L16.7684 34.2703C17.5213 33.9307 18.4464 33.6262 19.4293 33.505C20.9287 33.32 22.8069 33.5461 24.2498 35.048C24.2674 35.0663 24.2852 35.0848 24.3031 35.1033C24.8874 35.7112 25.6026 36.4552 26.1357 37.3923C26.3582 37.7836 26.5454 38.1998 26.6899 38.6486C28.5861 38.4282 30.7485 39.3614 32.5331 41.2189C33.2447 41.9596 33.897 42.9446 34.164 44.0598C34.5517 44.0522 34.9584 44.0692 35.3744 44.119C36.7563 44.2844 38.3556 44.8286 39.6401 46.1655C40.3972 46.9553 41.351 48.3154 41.8005 49.9381C41.9549 50.4959 42.0515 51.0966 42.0564 51.7182C42.1245 51.7286 42.1929 51.7415 42.2617 51.7566C45.3724 52.4446 47.5182 53.8276 48.125 56.0829C48.5287 57.583 48.125 59.0686 47.4629 60.3393C48.2305 60.8152 49.0571 61.1389 49.7498 61.1405C50.1925 61.1416 50.5729 61.0151 50.9314 60.6695C51.3264 60.2889 51.8055 59.5311 52.1519 58.0676C52.2728 57.5571 52.6233 57.1311 53.1011 56.9137C53.5791 56.6963 54.1307 56.712 54.5954 56.9561C56.9233 58.1792 59.1641 58.8849 60.8274 58.5876C61.5833 58.4526 62.2375 58.1082 62.793 57.4274C63.2549 56.8613 63.6956 56.0025 64.0141 54.7173L59.0774 51.6191C58.2831 51.1205 58.0435 50.0728 58.5426 49.2791C59.0415 48.4853 60.09 48.246 60.8844 48.7446L66.5917 52.3265C67.9941 52.6682 69.7809 52.7646 71.057 52.2625C71.6797 52.0175 72.1283 51.6535 72.4149 51.1333C72.656 50.6953 72.8473 50.0277 72.8126 49.0117L66.3624 44.5223C65.5926 43.9865 65.4032 42.9287 65.9395 42.1595C66.4757 41.3903 67.5344 41.2012 68.3041 41.7369L75.2179 46.5491C76.295 46.91 77.8291 47.2602 79.162 47.2557C80.7158 47.2505 81.1518 46.8119 81.2706 46.4784C81.8357 44.8932 81.7634 44.0915 81.6287 43.6582C81.4962 43.2322 81.2399 42.9089 80.7341 42.3743L54.8245 27.5593C54.0103 27.0937 53.728 26.0568 54.1939 25.2432C54.6599 24.4296 55.6977 24.1475 56.5119 24.6131L80.6329 38.4054L81.4576 34.6824C81.5894 34.0876 82.0299 33.6091 82.612 33.4284L84.5188 32.8363L77.5313 14.292L70.7446 16.0259C70.2304 16.1574 69.6842 16.041 69.2684 15.7115C68.8526 15.382 68.6147 14.8771 68.6256 14.347L68.6436 13.466L49.198 10.9043L35.6643 19.5258C35.2224 21.1114 34.5893 23.2547 33.9421 25.1879C33.5739 26.288 33.1924 27.3463 32.8319 28.2036C32.6874 28.5472 32.5396 28.8748 32.3907 29.1687C32.9267 29.4215 33.6965 29.6419 34.5715 29.6598C35.6014 29.6808 36.7363 29.4218 37.8093 28.6443C38.8854 27.8647 40.0168 26.4778 40.8833 24.0472C41.0877 23.4734 41.5843 23.0532 42.1843 22.946L48.2132 21.8687C49.1367 21.7036 50.0191 22.3178 50.1843 23.2406C50.3494 24.1633 49.7347 25.0451 48.8112 25.2102L43.7232 26.1193C42.7077 28.5511 41.3557 30.2678 39.8036 31.3924C38.0567 32.658 36.1741 33.0877 34.502 33.0536C32.858 33.02 31.3756 32.5387 30.3411 31.9197C29.8457 31.6233 29.3177 31.215 28.9692 30.6855C28.7926 30.4173 28.5882 30.0054 28.5711 29.4876C28.5523 28.9223 28.7647 28.3862 29.1609 27.9857C29.1686 27.9735 29.2135 27.9102 29.2924 27.7643C29.4058 27.5545 29.5429 27.2623 29.6999 26.8889C30.0129 26.1445 30.3636 25.177 30.7204 24.1112C31.4321 21.9849 32.1336 19.5715 32.5609 18.0005C32.6718 17.5931 32.9307 17.2415 33.2869 17.0146L47.8934 7.70968C48.2303 7.49501 48.6323 7.40593 49.0286 7.45812L70.5949 10.2992C71.453 10.4122 72.0888 11.1519 72.0711 12.0165L72.0677 12.1843L76.327 11.096L76.0374 10.3271C75.7198 9.48449 76.1162 8.54078 76.9403 8.17677L95.125 0.145316C95.9826 -0.233647 96.9861 0.154153 97.3649 1.01149ZM43.9211 59.6287C44.7873 58.4071 44.9877 57.4971 44.8442 56.9642C44.7366 56.5643 44.2126 55.6692 41.5506 55.076C41.5272 55.0791 41.4663 55.0917 41.3579 55.1409C41.1461 55.2371 40.8602 55.4271 40.5125 55.7388C39.7181 56.4506 38.9091 57.514 38.2684 58.469C37.9566 58.9338 37.7004 59.3492 37.5229 59.647C37.4884 59.7049 37.457 59.7582 37.4288 59.8064C37.4359 59.8662 37.4508 59.9409 37.4804 60.0268C37.5685 60.2826 37.8791 60.908 39.1635 61.5384C39.3314 61.6208 39.9797 61.701 41.1217 61.2946C42.118 60.94 43.1512 60.3288 43.9211 59.6287ZM34.7426 57.6803C34.9298 57.3728 35.1683 56.9938 35.4465 56.5791C36.1107 55.589 37.0629 54.3012 38.1303 53.3153C38.714 52.5429 38.7675 51.7143 38.5263 50.8435C38.2598 49.8813 37.6524 48.9997 37.1893 48.5162L34.7426 57.6803ZM34.7426 57.6803C34.418 57.6956 34.0217 57.6994 33.5989 57.6707C32.4397 57.5918 31.4968 57.296 31.0132 56.7928C30.3036 56.0541 29.8301 55.0905 29.5326 54.2458C29.446 54.0001 29.3775 53.773 29.324 53.5766C29.4712 53.4123 29.6302 53.2394 29.7979 53.0567C30.9716 51.7789 32.5797 50.0279 33.6787 47.4914C34.0527 47.4471 34.5011 47.4333 34.9704 47.4894C35.8051 47.5893 36.5918 47.8951 37.1893 48.5162L34.7426 57.6803ZM26.6169 51.5006C26.943 51.1181 27.2714 50.7592 27.5964 50.4041C28.8261 49.0604 30.0075 47.7696 30.8348 45.4489C30.9699 45.0699 30.8827 44.4028 30.0823 43.5696C28.0434 41.4473 26.7494 42.0612 26.5043 42.2962L22.0219 46.5955C21.9817 46.9457 21.9423 47.4508 21.9578 48.0102C21.9901 49.1688 22.2474 50.1196 22.73 50.6218C23.2135 51.1251 24.1564 51.4208 25.3157 51.4997C25.8096 51.5333 26.2673 51.5224 26.6169 51.5006ZM23.6013 40.3753C23.5387 39.8288 23.3818 39.4205 23.1822 39.0697C22.8771 38.5334 22.4436 38.0696 21.799 37.3987C21.3598 36.9415 20.7241 36.7655 19.8456 36.8739C18.9941 36.9789 18.1471 37.3357 17.6267 37.6405C17.3111 37.9135 16.7874 38.7181 16.5563 39.7987C16.3164 40.9199 16.5189 41.7061 16.8975 42.1001C17.6071 42.8388 18.5514 43.3509 19.3838 43.6823C19.5846 43.7623 19.773 43.8294 19.9423 43.8849L23.6013 40.3753Z" fill="#FF5722"/>
</svg>
