<svg width="80" height="80" viewBox="0 0 80 80" fill="none" xmlns="http://www.w3.org/2000/svg">
<path d="M34.5537 1C43.6171 1 51.1378 8.52066 51.1378 17.584V22.2121C51.1378 31.2755 43.6171 38.6033 34.5537 38.6033C25.2976 38.6033 17.9697 31.2755 17.9697 22.2121V17.584C17.9697 8.52066 25.2976 1 34.5537 1ZM34.5537 4.85675C27.4188 4.85675 21.8265 10.6419 21.8265 17.584V22.2121C21.8265 29.1543 27.4188 34.7466 34.5537 34.7466C41.4959 34.7466 47.281 29.1543 47.281 22.2121V17.584C47.281 10.6419 41.4959 4.85675 34.5537 4.85675Z" fill="#FF4C02" stroke="white" stroke-width="0.5"/>
<path d="M16.0413 38.7961C17.0055 38.4105 18.1625 38.989 18.3554 40.146C18.741 41.1102 18.1625 42.2672 17.1983 42.4601C9.87052 44.5813 4.85675 51.3306 4.85675 58.8512V67.3361H64.0579V58.8512C64.0579 51.3306 59.0441 44.5813 51.9091 42.4601C50.7521 42.2672 50.1736 41.1102 50.5592 40.146C50.7521 38.989 51.9091 38.4105 52.8733 38.7961C61.7438 41.303 67.9146 49.595 67.9146 58.8512V69.0716C67.9146 70.2287 67.1433 71 65.9862 71H2.92837C1.96419 71 1 70.2287 1 69.0716V58.8512C1 49.595 7.1708 41.303 16.0413 38.7961Z" fill="#FF4C02" stroke="white" stroke-width="0.5"/>
<circle cx="59" cy="46" r="12.5" fill="white" stroke="#FF4C02" stroke-width="3"/>
<path d="M62.7503 46.9222L62.3746 47.2907L62.4657 47.8091L63.1803 51.8751L59.4671 49.9136L59 49.6668L58.5329 49.9136L54.8197 51.8751L55.5343 47.8091L55.6254 47.2907L55.2497 46.9222L52.3159 44.0439L56.4043 43.3523L56.9002 43.2684L57.1285 42.8204L59 39.1483L60.8715 42.8204L61.0998 43.2684L61.5957 43.3523L65.6841 44.0439L62.7503 46.9222Z" stroke="#FF4C02" stroke-width="2"/>
</svg>
